<svg xmlns="http://www.w3.org/2000/svg" xmlns:xlink="http://www.w3.org/1999/xlink" fill="none" version="1.1" width="92" height="92" viewBox="0 0 92 92"><defs><linearGradient x1="0.28139185905456543" y1="0.09961876273155212" x2="1" y2="0.9215565323829651" id="master_svg0_0_463"><stop offset="0%" stop-color="#D0A64B" stop-opacity="1"/><stop offset="27.24941372871399%" stop-color="#EFB236" stop-opacity="1"/><stop offset="58.974748849868774%" stop-color="#976B17" stop-opacity="1"/><stop offset="76.57344341278076%" stop-color="#A77922" stop-opacity="1"/><stop offset="100%" stop-color="#CDAE4D" stop-opacity="1"/></linearGradient></defs><g><g><path d="M80.06099999999995,14.1736C91.01389999999995,29.9658,94.61939999999994,45.5415,90.09329999999994,62.1606C88.80019999999995,66.339,88.39159999999994,70.7167,88.88699999999994,75.0387L88.91369999999995,75.244C89.81149999999994,82.7306,83.54679999999995,88.426,75.87309999999994,87.2669C72.90119999999995,86.8761,69.86599999999994,87.3017,67.10489999999994,88.4998L66.69779999999994,88.667C60.94069999999994,90.9976,54.77009999999994,92.1277,48.56219999999994,91.9885L48.16429999999994,91.9864C34.81389999999994,91.8571,21.765699999999942,86.6295,10.043899999999944,76.9678C1.1259299999999433,69.6517,-1.805600000000057,60.2766,1.0589099999999432,49.2103C6.9016899999999435,26.6852,21.384099999999943,11.0033,43.516499999999944,2.80353C59.316399999999945,-3.04988,70.25879999999994,0.0405235,80.06099999999995,14.1736ZM3.577679999999943,56.452C3.706119999999943,71.2746,15.008399999999943,79.6711,30.364199999999943,75.408C53.39269999999994,69.0088,68.37339999999995,53.8292,75.41029999999995,30.9658C76.58339999999994,27.2631,76.82509999999995,23.3282,76.11409999999994,19.5097C73.87549999999995,7.99072,64.77839999999995,1.93574,52.701699999999946,3.95876C36.91429999999994,6.62015,25.04179999999994,15.5419,15.326899999999943,27.7019C9.659069999999943,34.7921,5.514469999999943,42.6903,4.093989999999943,51.8035C3.7921799999999433,53.3551,3.7921799999999433,54.9028,3.577679999999943,56.4519L3.577679999999943,56.452ZM38.24079999999994,30.2249C38.33709999999994,31.1834,38.24669999999994,31.7773,39.06409999999995,32.0394C39.881499999999946,32.3015,40.77279999999994,31.4151,41.290499999999945,30.6614C44.83559999999994,25.838,48.124599999999944,20.8281,51.14359999999994,15.653C51.991499999999945,14.1163,52.839299999999945,12.5651,53.54299999999994,10.9557C54.24669999999994,9.34635,54.24669999999994,8.41797,51.93379999999994,8.41797C49.620799999999946,8.41797,44.00289999999994,9.58209,40.60119999999994,11.7386C38.26389999999994,13.0285,36.93889999999994,15.6232,37.25439999999994,18.2926C37.62789999999994,22.2797,38.14459999999994,29.2664,38.24079999999994,30.2249ZM65.65469999999995,21.1011C59.60269999999994,26.1205,52.47099999999994,29.2317,45.53459999999994,32.6595Q45.05239999999994,32.8974,44.805299999999946,32.6595Q44.55819999999994,32.4216,44.805299999999946,31.9574C49.124799999999944,25.6327,53.299299999999945,19.1944,57.846999999999944,13.028C60.311699999999945,9.71536,62.594199999999944,10.1168,66.19729999999994,13.7879C68.79989999999994,16.4271,68.75689999999994,18.5338,65.65469999999995,21.1011ZM33.69039999999994,19.85C32.95839999999994,17.6389,31.676499999999944,17.3165,29.965299999999942,18.5248C25.522599999999944,21.6725,21.641399999999944,25.5512,18.485699999999945,29.9971C17.152799999999942,31.8615,17.417199999999944,32.6914,19.940799999999943,33.9143C22.464499999999944,35.1372,23.011899999999944,35.625,28.638199999999944,36.7385C34.26449999999994,37.8521,35.27069999999994,36.2268,35.27069999999994,30.754C35.27069999999994,25.2812,34.802299999999946,23.2087,33.69039999999994,19.85ZM68.00469999999994,36.2439C68.97009999999995,33.316,69.74999999999994,30.3281,70.33969999999994,27.2987C70.75549999999994,25.505,69.56569999999995,24.5708,68.14719999999994,25.2487C61.411399999999944,28.517,54.70569999999994,31.873,48.08509999999994,35.4634C46.35869999999994,36.4123,47.32549999999994,37.9439,48.97279999999994,38.4974C52.569399999999945,39.7317,55.409699999999944,41.1695,59.837799999999945,41.4623C64.26599999999995,41.7551,66.54159999999995,40.2852,68.00469999999994,36.2439ZM43.78759999999994,37.4061C43.39789999999994,39.7719,39.99239999999995,43.1593,37.62689999999994,43.521C36.02479999999994,43.7511,35.12959999999995,43.2606,35.28889999999994,41.6168C35.462799999999945,38.8849,39.184099999999944,35.143,41.79579999999994,34.9983C43.615199999999945,34.9129,44.032399999999946,35.8491,43.78759999999994,37.4061ZM8.385759999999943,51.4708C7.950889999999943,53.6648,8.904709999999943,54.7704,11.139999999999944,53.6519C17.536899999999942,50.4847,23.896199999999943,47.1952,30.287399999999945,44.0064C31.080399999999944,43.7554,31.594499999999943,42.9948,31.528299999999945,42.1709C31.528299999999945,41.0796,30.604899999999944,40.8939,29.868499999999944,40.6204C25.298999999999943,38.6949,20.364899999999942,37.7717,15.403199999999943,37.9139C10.441499999999943,38.0561,8.926519999999943,48.6112,8.385759999999943,51.4708ZM45.014399999999945,59.0463C45.77949999999994,61.2379,46.99099999999994,61.6675,48.57929999999995,60.5761C53.253499999999946,57.405,57.27329999999994,53.3501,60.41599999999994,48.6357C60.474399999999946,48.5466,60.531299999999945,48.4609,60.586099999999945,48.3782C61.56119999999994,46.9074,61.89949999999995,46.3971,59.059599999999946,45.2152C56.06009999999994,43.9669,52.95329999999994,43.2079,50.02269999999994,42.3032C44.84049999999994,40.6434,43.239099999999944,41.8956,43.455099999999945,48.2003C43.67099999999994,54.5051,43.68549999999994,55.2619,45.014399999999945,59.0463ZM33.23669999999994,46.4591C26.084099999999943,49.9904,18.60129999999994,53.2306,12.421099999999942,58.6046C10.174799999999943,60.5727,9.946419999999943,62.9124,12.320499999999942,65.232C15.911199999999942,68.8065,17.442199999999943,69.2661,20.189799999999945,66.8255C22.321199999999944,64.9597,23.508999999999943,62.3592,25.083099999999945,60.0641C28.044699999999942,55.7563,30.963199999999944,51.4499,33.910399999999946,47.1421Q34.13989999999994,46.6919,33.910399999999946,46.4591Q33.68079999999994,46.2264,33.23669999999994,46.4591ZM40.441199999999945,48.2622C40.36059999999994,47.2043,40.31759999999994,46.6047,39.70089999999994,46.4097C38.994299999999946,46.1987,38.23599999999994,46.4988,37.859899999999946,47.1383C33.40099999999995,53.7423,28.38329999999994,60.0156,25.206699999999945,67.4649C24.330199999999945,69.5268,25.350999999999942,70.5002,27.37259999999994,70.0354C30.589499999999944,69.3719,33.75699999999994,68.4838,36.85199999999994,67.3774C39.40839999999994,66.5472,41.233399999999946,64.2659,41.498599999999946,61.569C41.03799999999994,56.24,40.521899999999945,49.3201,40.441199999999945,48.2622Z" fill-rule="evenodd" fill="url(#master_svg0_0_463)" fill-opacity="1"/></g></g></svg>